<svg xmlns="http://www.w3.org/2000/svg" viewBox="0 0 248 248"><defs><style>.cls-1{fill:#fff;}.cls-2{fill:#008fd3;}.cls-3,.cls-4,.cls-5{fill:#f0ab00;}.cls-4{opacity:0.7;}.cls-5{opacity:0.4;}</style></defs><title>281980-pictogram-neg</title><g id="outlines"><path class="cls-1" d="M210.5,126.66a37,37,0,0,1-37,37h-6.9q1-1.92,1.9-4h5a33,33,0,0,0,8.56-64.84l-1.3-.35-.17-1.34a45.39,45.39,0,0,0-88-9.06l-.48,1.42-1.5-.06-.93,0a24.34,24.34,0,0,0-24.36,23.18l-.11,2.19-2.17-.3a24.72,24.72,0,1,0-3.42,49.19H91.88a52.78,52.78,0,0,1-3.61-19.78v-33l42.1-13.66h0v4.2h0L92.27,109.8v30.07c0,36.56,33.91,46,38.1,47.07h0V191L130,191c-.32-.07-25.06-5.47-36.29-27.31h-34a28.72,28.72,0,1,1,0-57.44q.93,0,1.88.06a28.34,28.34,0,0,1,27.8-24.88,49.39,49.39,0,0,1,95.08,9.93A37,37,0,0,1,210.5,126.66Z"/></g><g id="color_band" data-name="color band"><path class="cls-2" d="M130.37,93.23V191h0l.43-.1c.42-.1,41.67-10.13,41.67-52.08v-32Z"/></g><g id="_100_band" data-name="100% band"><polygon class="cls-3" points="172.51 117.67 172.51 106.89 130.37 93.23 130.37 117.67 172.51 117.67"/></g><g id="_70_band" data-name="70% band"><path class="cls-4" d="M130.37,142.12h42c.06-1.06.09-2.14.09-3.25v-21.2H130.37Z"/></g><g id="_40_band" data-name="40% band"><path class="cls-5" d="M130.37,166.57h34.56a50.11,50.11,0,0,0,7.49-24.45h-42Z"/></g></svg>