<svg xmlns="http://www.w3.org/2000/svg" viewBox="0 0 248 248"><defs><style>.cls-1{fill:#008fd3;}.cls-2,.cls-3,.cls-4{fill:#f0ab00;}.cls-3{opacity:0.7;}.cls-4{opacity:0.4;}.cls-5{fill:#fff;}</style></defs><title>283638-pictogram-neg</title><g id="color_band" data-name="color band"><path class="cls-1" d="M70.78,117.26v-3.59h0a39.3,39.3,0,0,0-37,26.19h0a39.29,39.29,0,0,0,0,26.18h0a39.4,39.4,0,0,0,16.18,20.21v6h0V211.3l20.53,4.09.7-3.54,12.21,2.43V191.33h13a2.57,2.57,0,0,0,2.56-2.57V168.54h7.95V153.27A36.1,36.1,0,0,0,70.78,117.26Zm29.57,40-1.8,3.57L87.7,155.42,98.55,150l1.8,3.57-3.75,1.88Z"/></g><g id="_100_band" data-name="100% band"><path class="cls-2" d="M70.78,117.26v-3.59h0a39.3,39.3,0,0,0-37,26.2h70.48A36.11,36.11,0,0,0,70.78,117.26Z"/></g><g id="_70_band" data-name="70% band"><path class="cls-3" d="M104.21,139.87H33.74a39.3,39.3,0,0,0,0,26.2h73.09V153.27A35.82,35.82,0,0,0,104.21,139.87Zm-3.86,17.44-1.8,3.57L87.7,155.42,98.55,150l1.8,3.57-3.75,1.88Z"/></g><g id="_40_band" data-name="40% band"><path class="cls-4" d="M96.32,191.33a2.57,2.57,0,0,0,2.56-2.57V168.54h7.95V166H33.73a39.4,39.4,0,0,0,16.18,20.22v6H83.36v-.9Z"/></g><g id="outlines_--_combound_path" data-name="outlines -- combound path"><path class="cls-5" d="M138.55,206V188.17H133a8.3,8.3,0,0,1-8.29-8.29V142.53a8.3,8.3,0,0,1,8.29-8.29h63.06a8.3,8.3,0,0,1,8.29,8.29v37.35a8.3,8.3,0,0,1-8.29,8.29H156.41ZM133,138.24a4.3,4.3,0,0,0-4.29,4.29v37.35a4.3,4.3,0,0,0,4.29,4.29h9.55v12.21l12.19-12.19.84,0h40.47a4.29,4.29,0,0,0,4.29-4.29V142.53a4.29,4.29,0,0,0-4.29-4.29Zm52.31,23a12.39,12.39,0,0,0,.12-1.53v-.16c0-.91.05-3.67-2.49-4.52a15.32,15.32,0,0,0-4.19-.33l-1.58,0,.13-.38a23.26,23.26,0,0,0,.78-2.59c.63-2.81.2-4.81-1.43-6.67a3.78,3.78,0,0,0-2.84-1.5c-1.8,0-3.14,1.57-3.33,3.91a8.76,8.76,0,0,1-2.11,4.41c-.34.44-.69.85-1,1.24a12.86,12.86,0,0,0-3,4.93,8.4,8.4,0,0,0-6.05-3.25H145.45V178h12.1c2.32,0,7,0,7.59-4.11a24.77,24.77,0,0,1,3.26.66,32.06,32.06,0,0,0,7.53.89,7.18,7.18,0,0,0,2-.18l.25-.07c1.42-.39,4.06-1.12,5-3.15a8.15,8.15,0,0,0,.61-1.93,5.57,5.57,0,0,0,1.23-2.7,7.37,7.37,0,0,0,0-1.78,13.3,13.3,0,0,0,.53-2.12A4.61,4.61,0,0,0,185.31,161.23ZM161.2,173c0,.52,0,1-3.65,1h-8.1V158.78h8.87c.89,0,2.83,1.19,2.88,1.76Zm20.39-10.05a10.93,10.93,0,0,1-.51,1.83l-.38.59.34.72a3.4,3.4,0,0,1,0,.83,2.26,2.26,0,0,1-.57.9l-.82.53.19,1a3.68,3.68,0,0,1-.29,1c-.15.19-.7.52-2.42,1l-.23.07a6.58,6.58,0,0,1-1,0,28.86,28.86,0,0,1-6.4-.73,30.64,30.64,0,0,0-4.33-.85v-7.32a5.41,5.41,0,0,0,3-3.45,9.43,9.43,0,0,1,2.19-3.41c.36-.43.73-.87,1.11-1.34a13.73,13.73,0,0,0,2.78-5.45,4.81,4.81,0,0,1-.13,2,19.61,19.61,0,0,1-.65,2.15c-.53,1.53-1.52,4.39,1.06,5.36a13.7,13.7,0,0,0,4.15.35c.8,0,2.07,0,2.68.08a6,6,0,0,1,0,.71v.22a11.47,11.47,0,0,1-.16,1.49l-.13.79.44.66A1.11,1.11,0,0,1,181.59,162.94Zm-83-13L87.7,155.42l10.86,5.46,1.8-3.57-3.75-1.88,3.75-1.88Zm-27.78-36.7v4a36.11,36.11,0,0,1,33.43,22.59h0a35.82,35.82,0,0,1,2.61,13.41V166h0v2.49H98.88v20.22a2.57,2.57,0,0,1-2.56,2.57h-13v22.95l-12.21-2.43-.7,3.54-.08.39,17,3.38V195.33h9a6.57,6.57,0,0,0,6.56-6.57V172.54h7.95V153.27A40.11,40.11,0,0,0,70.78,113.26Zm76.28,17.09V111.77h-.36a14.16,14.16,0,0,1-.07-28.32,14,14,0,0,1,12.82-11.27,23.57,23.57,0,0,1,45,4.75,17.92,17.92,0,0,1-5.92,34.83H165.64Zm-.36-42.9a10.16,10.16,0,1,0,0,20.32h4.36V120.7L164,107.77H198.5a13.92,13.92,0,0,0,3.62-27.36l-1.3-.35-.17-1.34a19.56,19.56,0,0,0-37.93-3.91l-.48,1.41-1.49-.06h-.39a10,10,0,0,0-10,9.51l-.11,2.19-2.17-.3A10.33,10.33,0,0,0,146.69,87.45Zm32.46,12.26H161.42V81.12h36.3Zm-13.73-4h12.07l10.58-10.59H165.42ZM84.86,97V76.24C73.19,71.14,66.28,62.9,66.28,54c0-15.05,20-27.3,44.6-27.3S155.47,39,155.47,54s-20,27.3-44.6,27.3a73.12,73.12,0,0,1-9.66-.64Zm26-66.32c-22.38,0-40.6,10.45-40.6,23.3,0,7.51,6.48,14.63,17.33,19l1.25.51V87.38L99.8,76.43l1,.15a69,69,0,0,0,10.08.74c22.38,0,40.6-10.45,40.6-23.3S133.26,30.71,110.87,30.71Zm6.89,8.72A9.48,9.48,0,0,0,110.89,42,9.52,9.52,0,0,0,104,39.44c-5.52,0-9.53,4.51-9.53,10.73,0,10.43,14.82,18.71,15.45,19.06l1,.53,1-.53c.63-.35,15.43-8.63,15.43-19.06C127.29,44,123.28,39.44,117.76,39.44Zm-6.87,25.73c-4.2-2.55-12.42-8.82-12.42-15,0-4,2.22-6.73,5.53-6.73h0a7.18,7.18,0,0,1,6.87,4.64,7.15,7.15,0,0,1,6.87-4.64h0c3.3,0,5.52,2.71,5.52,6.73C123.29,56.35,115.08,62.61,110.89,65.16Z"/></g></svg>