<svg xmlns="http://www.w3.org/2000/svg" viewBox="0 0 248 248"><defs><style>.cls-1{fill:#fff;}.cls-2{fill:#008fd3;}.cls-3,.cls-4,.cls-5{fill:#f0ab00;}.cls-4{opacity:0.7;}.cls-5{opacity:0.4;}</style></defs><title>283899-pictogram-neg</title><g id="outlines_--_combound_path" data-name="outlines -- combound path"><path class="cls-1" d="M168.74,103.58C177,102,182.58,99,185.26,94.72a12.32,12.32,0,0,0,.47-11.78l-.91-1.69-1.91.17c-9.33.84-11.22-16.15-11.24-16.39-.9-7.11-3.73-12.18-8.4-15.08-4.88-3-10.55-2.84-14.19-2.26V43l-.14-1c-3.73-18-18.82-26-32-25.83S88.73,24.54,85.37,42.64l0,28.88h7.43a28.52,28.52,0,0,0,30.56,27.11l1.83-.13-.42-5.8-1.82.13a22.7,22.7,0,0,1-24.31-24l.19-3.09H91.14V43.45c3-15.67,15.78-21.36,25.81-21.46s23,5.39,26.29,21.19l0,60.41h25.49Zm-19.56-4.44V53.59c2.62-.51,7.35-1,11,1.3,3.11,1.93,5,5.59,5.69,10.8.09.88,2.24,20.54,15.2,21.54a6.08,6.08,0,0,1-.81,4.48C178.38,94.7,171.82,99.48,149.18,99.15ZM73.5,223.54H79a15,15,0,0,1-28.82-5.68V144.59h6v64.57H73.5v6H56.19v2.69a9,9,0,0,0,17.31,3.29ZM196.19,145v72.65a15,15,0,0,1-28.72,5.93h4.92v-4.35a9,9,0,0,0,17.8-1.58v-2.69h-17.8v-6h17.8V145ZM98.58,55.85l-2.4-3.2,3.75-2.8L96.18,47l2.4-3.2,8,6Zm41.15,86.25h23v5h-23Z"/></g><g id="color_band" data-name="color band"><path class="cls-2" d="M203.42,143.11h0c-.08-1.07-.17-2.11-.27-3.12l-.06-.89h0a39.13,39.13,0,0,0-1.13-6.41l0-.08a48.35,48.35,0,0,0-5.71-12.89c-6.54-10.22-16.56-16.09-27.5-16.13H143.11l-.9,1.16c-6.25,8.05-12.59,12.21-18.83,12.37-6.5.15-13.51-4-20.76-12.48l-.9-1H78.21c-12.42,0-23.72,7.73-30.23,20.68l-.21.41a50.74,50.74,0,0,0-3.07,7.93,58.67,58.67,0,0,0-2.26,12H73.5v78.94h98.89V145h31.17Zm-40.69,4h-23v-5h23Z"/></g><g id="_100_band" data-name="100% band"><path class="cls-3" d="M168.63,103.58H143.11l-.9,1.16c-6.25,8.05-12.59,12.21-18.83,12.37-6.5.15-13.51-4-20.76-12.48l-.9-1H78.21c-12.42,0-23.72,7.73-30.23,20.68l-.21.41a50.74,50.74,0,0,0-3.07,7.93H201.95a48.35,48.35,0,0,0-5.71-12.89C189.68,109.46,179.62,103.58,168.63,103.58Z"/></g><g id="_70_band" data-name="70% band"><path class="cls-4" d="M203.42,143.11h0c-.08-1.07-.17-2.11-.27-3.12l-.06-.89h0a39.13,39.13,0,0,0-1.13-6.41l0-.08H44.7a58.67,58.67,0,0,0-2.26,12H73.5v19h98.89V145h31.17Zm-40.69,4h-23v-5h23Z"/></g><g id="_40_band" data-name="40% band"><rect class="cls-5" x="73.5" y="163.56" width="98.89" height="30.95"/></g></svg>